<mxfile host="Electron" modified="2024-07-07T03:55:35.709Z" agent="Mozilla/5.0 (Macintosh; Intel Mac OS X 10_15_7) AppleWebKit/537.36 (KHTML, like Gecko) draw.io/24.6.4 Chrome/124.0.6367.207 Electron/30.0.6 Safari/537.36" etag="Imqx1pLCiQfPqKtLFrO8" version="24.6.4" type="device">
  <diagram name="PÃ¡gina-1" id="hoHlmJE55N2O5cTHrj33">
    <mxGraphModel dx="1624" dy="1297" grid="0" gridSize="10" guides="1" tooltips="1" connect="1" arrows="1" fold="1" page="0" pageScale="1" pageWidth="827" pageHeight="1169" math="0" shadow="0">
      <root>
        <mxCell id="0" />
        <mxCell id="1" parent="0" />
        <mxCell id="Jm6LdPXS1RF-7PNpZQuV-33" value="ReprodutorMusical" style="swimlane;fontStyle=1;align=center;verticalAlign=top;childLayout=stackLayout;horizontal=1;startSize=26;horizontalStack=0;resizeParent=1;resizeParentMax=0;resizeLast=0;collapsible=1;marginBottom=0;whiteSpace=wrap;html=1;" parent="1" vertex="1">
          <mxGeometry x="100" y="-11" width="239" height="138" as="geometry" />
        </mxCell>
        <mxCell id="Jm6LdPXS1RF-7PNpZQuV-34" value="- musica: String" style="text;strokeColor=none;fillColor=none;align=left;verticalAlign=top;spacingLeft=4;spacingRight=4;overflow=hidden;rotatable=0;points=[[0,0.5],[1,0.5]];portConstraint=eastwest;whiteSpace=wrap;html=1;" parent="Jm6LdPXS1RF-7PNpZQuV-33" vertex="1">
          <mxGeometry y="26" width="239" height="26" as="geometry" />
        </mxCell>
        <mxCell id="Jm6LdPXS1RF-7PNpZQuV-35" value="" style="line;strokeWidth=1;fillColor=none;align=left;verticalAlign=middle;spacingTop=-1;spacingLeft=3;spacingRight=3;rotatable=0;labelPosition=right;points=[];portConstraint=eastwest;strokeColor=inherit;" parent="Jm6LdPXS1RF-7PNpZQuV-33" vertex="1">
          <mxGeometry y="52" width="239" height="8" as="geometry" />
        </mxCell>
        <mxCell id="Jm6LdPXS1RF-7PNpZQuV-36" value="+ selecionarMusica(String musica): String" style="text;strokeColor=none;fillColor=none;align=left;verticalAlign=top;spacingLeft=4;spacingRight=4;overflow=hidden;rotatable=0;points=[[0,0.5],[1,0.5]];portConstraint=eastwest;whiteSpace=wrap;html=1;" parent="Jm6LdPXS1RF-7PNpZQuV-33" vertex="1">
          <mxGeometry y="60" width="239" height="26" as="geometry" />
        </mxCell>
        <mxCell id="Jm6LdPXS1RF-7PNpZQuV-37" value="+ tocar(): void" style="text;strokeColor=none;fillColor=none;align=left;verticalAlign=top;spacingLeft=4;spacingRight=4;overflow=hidden;rotatable=0;points=[[0,0.5],[1,0.5]];portConstraint=eastwest;whiteSpace=wrap;html=1;" parent="Jm6LdPXS1RF-7PNpZQuV-33" vertex="1">
          <mxGeometry y="86" width="239" height="26" as="geometry" />
        </mxCell>
        <mxCell id="Jm6LdPXS1RF-7PNpZQuV-38" value="+ pausar(): void" style="text;strokeColor=none;fillColor=none;align=left;verticalAlign=top;spacingLeft=4;spacingRight=4;overflow=hidden;rotatable=0;points=[[0,0.5],[1,0.5]];portConstraint=eastwest;whiteSpace=wrap;html=1;" parent="Jm6LdPXS1RF-7PNpZQuV-33" vertex="1">
          <mxGeometry y="112" width="239" height="26" as="geometry" />
        </mxCell>
        <mxCell id="Jm6LdPXS1RF-7PNpZQuV-39" value="AparelhoTelefonico" style="swimlane;fontStyle=1;align=center;verticalAlign=top;childLayout=stackLayout;horizontal=1;startSize=26;horizontalStack=0;resizeParent=1;resizeParentMax=0;resizeLast=0;collapsible=1;marginBottom=0;whiteSpace=wrap;html=1;" parent="1" vertex="1">
          <mxGeometry x="-227" y="-9" width="239" height="138" as="geometry" />
        </mxCell>
        <mxCell id="Jm6LdPXS1RF-7PNpZQuV-40" value="- numero: String" style="text;strokeColor=none;fillColor=none;align=left;verticalAlign=top;spacingLeft=4;spacingRight=4;overflow=hidden;rotatable=0;points=[[0,0.5],[1,0.5]];portConstraint=eastwest;whiteSpace=wrap;html=1;" parent="Jm6LdPXS1RF-7PNpZQuV-39" vertex="1">
          <mxGeometry y="26" width="239" height="26" as="geometry" />
        </mxCell>
        <mxCell id="Jm6LdPXS1RF-7PNpZQuV-41" value="" style="line;strokeWidth=1;fillColor=none;align=left;verticalAlign=middle;spacingTop=-1;spacingLeft=3;spacingRight=3;rotatable=0;labelPosition=right;points=[];portConstraint=eastwest;strokeColor=inherit;" parent="Jm6LdPXS1RF-7PNpZQuV-39" vertex="1">
          <mxGeometry y="52" width="239" height="8" as="geometry" />
        </mxCell>
        <mxCell id="Jm6LdPXS1RF-7PNpZQuV-42" value="+ ligar(String numero): String" style="text;strokeColor=none;fillColor=none;align=left;verticalAlign=top;spacingLeft=4;spacingRight=4;overflow=hidden;rotatable=0;points=[[0,0.5],[1,0.5]];portConstraint=eastwest;whiteSpace=wrap;html=1;" parent="Jm6LdPXS1RF-7PNpZQuV-39" vertex="1">
          <mxGeometry y="60" width="239" height="26" as="geometry" />
        </mxCell>
        <mxCell id="Jm6LdPXS1RF-7PNpZQuV-43" value="+ atender(): void" style="text;strokeColor=none;fillColor=none;align=left;verticalAlign=top;spacingLeft=4;spacingRight=4;overflow=hidden;rotatable=0;points=[[0,0.5],[1,0.5]];portConstraint=eastwest;whiteSpace=wrap;html=1;" parent="Jm6LdPXS1RF-7PNpZQuV-39" vertex="1">
          <mxGeometry y="86" width="239" height="26" as="geometry" />
        </mxCell>
        <mxCell id="Jm6LdPXS1RF-7PNpZQuV-44" value="+ iniciarCorreioVoz(): void" style="text;strokeColor=none;fillColor=none;align=left;verticalAlign=top;spacingLeft=4;spacingRight=4;overflow=hidden;rotatable=0;points=[[0,0.5],[1,0.5]];portConstraint=eastwest;whiteSpace=wrap;html=1;" parent="Jm6LdPXS1RF-7PNpZQuV-39" vertex="1">
          <mxGeometry y="112" width="239" height="26" as="geometry" />
        </mxCell>
        <mxCell id="Jm6LdPXS1RF-7PNpZQuV-45" value="NavegadorInternet" style="swimlane;fontStyle=1;align=center;verticalAlign=top;childLayout=stackLayout;horizontal=1;startSize=26;horizontalStack=0;resizeParent=1;resizeParentMax=0;resizeLast=0;collapsible=1;marginBottom=0;whiteSpace=wrap;html=1;" parent="1" vertex="1">
          <mxGeometry x="-70.5" y="169" width="239" height="138" as="geometry" />
        </mxCell>
        <mxCell id="Jm6LdPXS1RF-7PNpZQuV-46" value="- url: String" style="text;strokeColor=none;fillColor=none;align=left;verticalAlign=top;spacingLeft=4;spacingRight=4;overflow=hidden;rotatable=0;points=[[0,0.5],[1,0.5]];portConstraint=eastwest;whiteSpace=wrap;html=1;" parent="Jm6LdPXS1RF-7PNpZQuV-45" vertex="1">
          <mxGeometry y="26" width="239" height="26" as="geometry" />
        </mxCell>
        <mxCell id="Jm6LdPXS1RF-7PNpZQuV-47" value="" style="line;strokeWidth=1;fillColor=none;align=left;verticalAlign=middle;spacingTop=-1;spacingLeft=3;spacingRight=3;rotatable=0;labelPosition=right;points=[];portConstraint=eastwest;strokeColor=inherit;" parent="Jm6LdPXS1RF-7PNpZQuV-45" vertex="1">
          <mxGeometry y="52" width="239" height="8" as="geometry" />
        </mxCell>
        <mxCell id="Jm6LdPXS1RF-7PNpZQuV-48" value="+ exibirPagina(String url): String" style="text;strokeColor=none;fillColor=none;align=left;verticalAlign=top;spacingLeft=4;spacingRight=4;overflow=hidden;rotatable=0;points=[[0,0.5],[1,0.5]];portConstraint=eastwest;whiteSpace=wrap;html=1;" parent="Jm6LdPXS1RF-7PNpZQuV-45" vertex="1">
          <mxGeometry y="60" width="239" height="26" as="geometry" />
        </mxCell>
        <mxCell id="Jm6LdPXS1RF-7PNpZQuV-49" value="+ adicionarNovaAba(): void" style="text;strokeColor=none;fillColor=none;align=left;verticalAlign=top;spacingLeft=4;spacingRight=4;overflow=hidden;rotatable=0;points=[[0,0.5],[1,0.5]];portConstraint=eastwest;whiteSpace=wrap;html=1;" parent="Jm6LdPXS1RF-7PNpZQuV-45" vertex="1">
          <mxGeometry y="86" width="239" height="26" as="geometry" />
        </mxCell>
        <mxCell id="Jm6LdPXS1RF-7PNpZQuV-50" value="+ atualizarPagina(): void" style="text;strokeColor=none;fillColor=none;align=left;verticalAlign=top;spacingLeft=4;spacingRight=4;overflow=hidden;rotatable=0;points=[[0,0.5],[1,0.5]];portConstraint=eastwest;whiteSpace=wrap;html=1;" parent="Jm6LdPXS1RF-7PNpZQuV-45" vertex="1">
          <mxGeometry y="112" width="239" height="26" as="geometry" />
        </mxCell>
        <mxCell id="Jm6LdPXS1RF-7PNpZQuV-54" value="Iphone" style="swimlane;fontStyle=1;align=center;verticalAlign=top;childLayout=stackLayout;horizontal=1;startSize=26;horizontalStack=0;resizeParent=1;resizeParentMax=0;resizeLast=0;collapsible=1;marginBottom=0;whiteSpace=wrap;html=1;" parent="1" vertex="1">
          <mxGeometry x="-31" y="-139" width="160" height="86" as="geometry" />
        </mxCell>
        <mxCell id="Jm6LdPXS1RF-7PNpZQuV-55" value="&amp;nbsp;" style="text;strokeColor=none;fillColor=none;align=left;verticalAlign=top;spacingLeft=4;spacingRight=4;overflow=hidden;rotatable=0;points=[[0,0.5],[1,0.5]];portConstraint=eastwest;whiteSpace=wrap;html=1;" parent="Jm6LdPXS1RF-7PNpZQuV-54" vertex="1">
          <mxGeometry y="26" width="160" height="26" as="geometry" />
        </mxCell>
        <mxCell id="Jm6LdPXS1RF-7PNpZQuV-56" value="" style="line;strokeWidth=1;fillColor=none;align=left;verticalAlign=middle;spacingTop=-1;spacingLeft=3;spacingRight=3;rotatable=0;labelPosition=right;points=[];portConstraint=eastwest;strokeColor=inherit;" parent="Jm6LdPXS1RF-7PNpZQuV-54" vertex="1">
          <mxGeometry y="52" width="160" height="8" as="geometry" />
        </mxCell>
        <mxCell id="Jm6LdPXS1RF-7PNpZQuV-57" value="&amp;nbsp;" style="text;strokeColor=none;fillColor=none;align=left;verticalAlign=top;spacingLeft=4;spacingRight=4;overflow=hidden;rotatable=0;points=[[0,0.5],[1,0.5]];portConstraint=eastwest;whiteSpace=wrap;html=1;" parent="Jm6LdPXS1RF-7PNpZQuV-54" vertex="1">
          <mxGeometry y="60" width="160" height="26" as="geometry" />
        </mxCell>
        <mxCell id="Jm6LdPXS1RF-7PNpZQuV-59" style="edgeStyle=none;curved=1;rounded=0;orthogonalLoop=1;jettySize=auto;html=1;exitX=1;exitY=0.5;exitDx=0;exitDy=0;fontSize=12;startSize=8;endSize=8;entryX=0.5;entryY=0;entryDx=0;entryDy=0;" parent="1" source="Jm6LdPXS1RF-7PNpZQuV-57" target="Jm6LdPXS1RF-7PNpZQuV-33" edge="1">
          <mxGeometry relative="1" as="geometry" />
        </mxCell>
        <mxCell id="Jm6LdPXS1RF-7PNpZQuV-60" style="edgeStyle=none;curved=1;rounded=0;orthogonalLoop=1;jettySize=auto;html=1;exitX=0;exitY=0.5;exitDx=0;exitDy=0;entryX=0.5;entryY=0;entryDx=0;entryDy=0;fontSize=12;startSize=8;endSize=8;" parent="1" source="Jm6LdPXS1RF-7PNpZQuV-57" target="Jm6LdPXS1RF-7PNpZQuV-39" edge="1">
          <mxGeometry relative="1" as="geometry" />
        </mxCell>
        <mxCell id="Jm6LdPXS1RF-7PNpZQuV-61" value="" style="html=1;verticalAlign=bottom;labelBackgroundColor=none;endArrow=block;endFill=1;rounded=0;fontSize=12;startSize=8;endSize=8;curved=1;entryX=0.5;entryY=0;entryDx=0;entryDy=0;exitX=0.5;exitY=0.942;exitDx=0;exitDy=0;exitPerimeter=0;" parent="1" source="Jm6LdPXS1RF-7PNpZQuV-57" target="Jm6LdPXS1RF-7PNpZQuV-45" edge="1">
          <mxGeometry width="160" relative="1" as="geometry">
            <mxPoint x="49" y="39" as="sourcePoint" />
            <mxPoint x="201" y="143" as="targetPoint" />
          </mxGeometry>
        </mxCell>
      </root>
    </mxGraphModel>
  </diagram>
</mxfile>
